# xmcd CD database file
#
# Track frame offsets:
#	150
#	18505
#	37419
#	58926
#	79020
#	96837
#	116225
#	137497
#	153931
#	170467
#	191036
#	211669
#
# Disc length: 3046 seconds
#
# Revision: 0
# Processed by: cddbd v1.5.1PL2 Copyright (c) Steve Scherf et al.
# Submitted via: CDex 1.51
#
DISCID=a50be40c
DTITLE=林姍 - 綿綿舊情
DYEAR=2005
DGENRE=Country
TTITLE0=綿綿舊情
TTITLE1=我最愛的人
TTITLE2=愛情酸甘甜
TTITLE3=緣份放一邊 (feat. 傅振輝)
TTITLE4=無人來作伴 (feat. 翁立友)
TTITLE5=真愛只有你 (feat. 傅振輝)
TTITLE6=沒人疼的心
TTITLE7=有情人
TTITLE8=媽媽的裁縫車
TTITLE9=捧著祝福來相送
TTITLE10=認命
TTITLE11=舊情綿綿
EXTD=YEAR: 2005
EXTT0=
EXTT1=
EXTT2=
EXTT3=
EXTT4=
EXTT5=
EXTT6=
EXTT7=
EXTT8=
EXTT9=
EXTT10=
EXTT11=
PLAYORDER=
